<?xml version="1.0" encoding="utf-8"?>
<!-- Svg Vector Icons : http://www.onlinewebfonts.com/icon -->
<!DOCTYPE svg PUBLIC "-//W3C//DTD SVG 1.1//EN" "http://www.w3.org/Graphics/SVG/1.1/DTD/svg11.dtd">
<svg version="1.1" xmlns="http://www.w3.org/2000/svg" xmlns:xlink="http://www.w3.org/1999/xlink" x="0px" y="0px" viewBox="0 0 1000 1000" enable-background="new 0 0 1000 1000" xml:space="preserve">
<metadata> Svg Vector Icons : http://www.onlinewebfonts.com/icon </metadata>
<g><g transform="translate(0.000000,511.000000) scale(0.100000,-0.100000)"><path d="M4672,4491.3c-174.3-278.8-512.6-818-752.4-1197.3l-432.6-693h510.5h510.5V1596.4V591.8H3503.3H2498.7l-4.1,508.4l-6.1,506.4L1295.3,858.3C637.2,446.2,100,105.9,100,99.7c0-6.1,537.2-342.4,1195.3-748.3l1193.2-738.1l6.1,496.2l4.1,498.2h1004.6h1004.6v-1004.6v-1004.6h-510.5h-510.5l750.4-1189.1c414.1-654,756.5-1189.1,762.7-1189.1s344.4,535.1,752.4,1189.1l742.2,1189.1h-502.3h-500.3v1004.6v1004.6h1004.6h1004.6l4.1-498.2l6.1-496.2l1193.2,738.1C9362.8-242.6,9900,93.6,9900,99.7c0,6.2-237.8,159.9-526.9,340.3c-291.1,182.5-830.3,520.8-1199.4,752.4l-672.5,420.3v-510.5V591.8H6496.6H5492.1v1004.6V2601l498.2,4.1l496.2,6.1l-738.1,1193.2c-405.9,658.1-742.2,1195.3-748.3,1195.3S4846.2,4772.2,4672,4491.3z"/></g></g>
</svg>