<?xml version="1.0" encoding="utf-8"?>
<!-- Svg Vector Icons : http://www.onlinewebfonts.com/icon -->
<!DOCTYPE svg PUBLIC "-//W3C//DTD SVG 1.1//EN" "http://www.w3.org/Graphics/SVG/1.1/DTD/svg11.dtd">
<svg version="1.1" xmlns="http://www.w3.org/2000/svg" xmlns:xlink="http://www.w3.org/1999/xlink" x="0px" y="0px" viewBox="0 0 1000 1000" enable-background="new 0 0 1000 1000" xml:space="preserve">
<metadata> Svg Vector Icons : http://www.onlinewebfonts.com/icon </metadata>
<g><path d="M892,818.4h-79.3l-70.8,122.7L529.4,818.4H108c-54.1,0-98-43.9-98-98V156.9c0-54.1,43.9-98,98-98h784c54.1,0,98,43.9,98,98v563.5C990,774.5,946.1,818.4,892,818.4z M916.5,132.4h-833v612.5h463.9l170.1,98.2l56.7-98.2h142.4V132.4z M181.5,585.7c0-20.3,16.5-36.8,36.8-36.8h563.5c20.3,0,36.8,16.5,36.8,36.8c0,20.3-16.5,36.8-36.8,36.8H218.3C198,622.4,181.5,606,181.5,585.7z M781.8,475.4H218.3c-20.3,0-36.8-16.5-36.8-36.8c0-20.3,16.5-36.8,36.8-36.8h563.5c20.3,0,36.8,16.5,36.8,36.8C818.5,459,802,475.4,781.8,475.4z M585.8,328.4H218.3c-20.3,0-36.8-16.5-36.8-36.7c0-20.3,16.5-36.8,36.8-36.8h367.5c20.3,0,36.8,16.5,36.8,36.8C622.5,312,606,328.4,585.8,328.4z"/></g>
</svg>